<?xml version="1.0" standalone="no"?>
<!DOCTYPE svg PUBLIC "-//W3C//DTD SVG 20010904//EN"
 "http://www.w3.org/TR/2001/REC-SVG-20010904/DTD/svg10.dtd">
<svg version="1.0" xmlns="http://www.w3.org/2000/svg"
 width="433.000000pt" height="577.000000pt" viewBox="0 0 433.000000 577.000000"
 preserveAspectRatio="xMidYMid meet">

<g transform="translate(0.000000,577.000000) scale(0.100000,-0.100000)"
fill="#000000" stroke="none">
<path d="M1838 5023 c-2 -20 -13 -33 -37 -45 -19 -9 -38 -21 -44 -27 -6 -6
-24 -3 -52 9 -37 16 -46 17 -62 5 -10 -8 -30 -15 -45 -15 -26 0 -42 -16 -74
-75 -6 -12 -24 -21 -42 -23 -17 -2 -36 -10 -42 -18 -7 -8 -17 -14 -23 -14 -6
0 -18 -6 -26 -14 -9 -8 -43 -17 -76 -21 -32 -3 -63 -9 -67 -11 -4 -3 -8 -36
-8 -74 l0 -70 -37 -19 c-25 -12 -45 -16 -58 -10 -11 4 -23 8 -27 8 -15 2 -14
-36 2 -69 22 -46 20 -272 -3 -340 -9 -25 -19 -85 -23 -134 -6 -76 -11 -93 -31
-112 -22 -20 -23 -28 -22 -121 1 -55 -1 -105 -4 -110 -8 -13 17 -196 31 -233
5 -14 13 -55 16 -92 7 -61 5 -71 -15 -100 -19 -26 -24 -51 -31 -157 -11 -158
-1 -218 63 -366 14 -33 39 -183 39 -234 0 -26 3 -50 6 -54 4 -3 16 -34 29 -69
12 -35 31 -84 43 -110 38 -82 40 -80 -152 -164 -72 -32 -150 -70 -173 -86 -49
-33 -236 -242 -280 -313 -16 -27 -66 -122 -109 -210 l-79 -160 -1 -135 c-1
-250 -31 -426 -88 -520 -64 -107 -104 -247 -126 -440 -6 -58 -19 -144 -29
-192 l-18 -88 2084 0 2083 0 0 931 0 931 -40 15 c-22 9 -40 20 -40 25 0 4 -8
8 -17 8 -29 0 -91 20 -105 33 -7 7 -22 12 -33 12 -19 -1 -50 30 -50 50 0 6
-10 11 -22 13 -27 4 -95 61 -87 74 3 4 -1 8 -10 8 -8 0 -16 4 -18 8 -1 5 -36
31 -75 57 -40 26 -73 51 -73 56 0 4 -17 29 -39 56 -34 44 -47 52 -112 71 -88
26 -215 29 -279 7 -30 -11 -53 -12 -80 -6 -22 5 -41 6 -44 3 -12 -12 -36 23
-52 76 -9 31 -45 113 -80 181 l-64 125 16 60 c13 50 15 93 11 236 -6 152 -4
186 13 260 11 47 25 110 31 140 10 51 25 94 51 146 7 15 7 28 -2 43 -8 15 -9
48 -5 102 5 53 3 84 -4 93 -8 10 -8 21 -1 42 6 15 8 35 4 43 -19 46 -42 168
-38 195 8 44 25 86 35 86 5 0 9 11 9 25 0 32 31 94 48 95 6 0 12 4 12 10 0 6
-10 5 -25 -2 -21 -10 -28 -8 -40 8 -19 25 -19 70 0 78 21 8 19 23 -5 29 -11 3
-20 12 -20 21 0 9 9 25 20 36 13 13 15 20 7 20 -7 0 -18 -5 -24 -11 -17 -17
-47 -6 -53 20 -6 28 -47 38 -80 21 -18 -10 -20 -8 -20 23 0 19 7 40 15 47 27
22 14 55 -22 58 l-32 3 16 34 c21 44 12 68 -22 59 -20 -5 -24 -3 -19 10 3 9 2
16 -4 16 -5 0 -12 -7 -16 -15 -8 -21 -50 -19 -71 5 -17 18 -20 19 -36 4 -16
-14 -18 -14 -27 1 -8 16 -11 16 -41 0 -37 -19 -51 -13 -34 15 10 14 9 21 -2
30 -8 7 -15 21 -15 30 0 10 -5 20 -10 22 -6 2 -13 26 -15 53 -6 59 -13 85 -24
85 -5 0 -21 -10 -37 -22 -15 -13 -36 -22 -45 -20 -10 2 -29 -12 -44 -33 -30
-39 -55 -46 -55 -15 0 30 -20 24 -32 -10 -14 -41 -33 -33 -33 13 0 41 -13 47
-40 17 -25 -27 -33 -18 -31 35 1 48 -5 56 -26 27 -16 -22 -45 -34 -53 -22 -3
5 -18 15 -35 23 -27 14 -30 13 -51 -9 -12 -13 -31 -24 -41 -24 -27 0 -57 -17
-95 -53 l-32 -30 -11 29 c-7 16 -18 40 -26 54 -7 14 -19 37 -25 53 -6 15 -17
27 -24 27 -8 0 -15 -12 -17 -27z m977 -1043 c-3 -5 -3 -16 1 -22 10 -15 11
-23 20 -119 5 -53 3 -78 -5 -83 -6 -4 -11 -18 -11 -32 0 -17 -8 -27 -27 -35
l-28 -10 43 -38 c36 -33 42 -43 42 -79 0 -38 3 -43 38 -61 20 -10 36 -23 36
-27 -1 -5 2 -8 7 -6 5 1 9 -5 9 -14 0 -8 4 -13 8 -10 11 6 13 -16 16 -194 2
-85 6 -208 11 -272 6 -95 5 -118 -6 -118 -10 0 -10 -3 -2 -11 9 -9 8 -15 -2
-25 -9 -10 -11 -24 -5 -49 5 -21 4 -35 -2 -35 -5 0 -7 -3 -4 -8 2 -4 -1 -14
-7 -22 -13 -16 -87 -22 -87 -8 0 5 -4 6 -10 3 -6 -4 -10 8 -10 30 0 22 -4 34
-10 30 -6 -4 -10 5 -10 19 0 15 -6 26 -13 26 -22 0 -9 66 22 121 6 11 6 20 -2
28 -8 8 -7 18 6 40 9 15 13 32 9 36 -4 5 -1 5 6 1 7 -4 12 -1 12 9 0 9 4 14 9
10 11 -6 26 33 17 42 -3 4 -1 12 5 19 7 8 7 24 1 46 -5 18 -8 42 -6 53 8 53 7
70 -1 73 -6 1 -11 -17 -12 -39 -4 -53 -8 -58 -33 -31 -12 12 -25 22 -29 22 -5
0 -16 21 -25 46 l-15 45 53 -6 c60 -8 79 5 52 34 -9 10 -16 22 -16 27 0 5 -29
36 -64 68 -35 33 -62 64 -60 70 17 52 12 76 -23 107 -23 20 -36 41 -37 57 -1
15 -5 32 -9 39 -4 6 -3 14 3 18 5 3 10 12 10 18 0 8 -3 8 -9 -1 -12 -20 -33
11 -30 45 2 15 0 33 -4 40 -10 16 2 41 23 48 10 3 17 13 16 23 -1 13 8 17 39
18 22 0 43 -4 47 -10 12 -18 36 12 30 39 -3 19 0 25 12 25 10 0 14 -4 11 -10z
m-1225 -770 c0 -5 -4 -10 -10 -10 -5 0 -10 5 -10 10 0 6 5 10 10 10 6 0 10 -4
10 -10z m-102 -57 c10 -31 10 -32 -9 -20 -19 12 -25 37 -12 50 8 9 8 9 21 -30z
m226 -6 c13 -22 -5 -37 -46 -37 -26 0 -26 0 -11 31 16 33 39 35 57 6z m801 3
c3 -5 1 -10 -4 -10 -6 0 -11 5 -11 10 0 6 2 10 4 10 3 0 8 -4 11 -10z m128
-30 c15 -7 27 -19 27 -26 0 -13 -76 -42 -85 -33 -6 7 17 79 24 76 3 -2 18 -9
34 -17z m-220 -22 c7 -25 3 -33 -12 -23 -13 8 -15 45 -2 45 5 0 11 -10 14 -22z
m-63 -8 c0 -5 -4 -10 -10 -10 -5 0 -10 5 -10 10 0 6 5 10 10 10 6 0 10 -4 10
-10z m380 -40 c0 -17 9 -23 40 -22 3 0 16 2 30 6 14 3 19 3 13 0 -7 -3 -13
-12 -13 -20 0 -8 -4 -14 -10 -14 -5 0 -10 4 -10 9 0 13 -25 8 -44 -8 -12 -10
-16 -11 -16 -1 0 7 -8 10 -20 7 -29 -8 -43 15 -24 41 19 28 54 29 54 2z m-513
-156 c10 -9 16 -33 16 -60 0 -25 6 -49 13 -55 8 -6 14 -20 14 -31 0 -17 -4
-19 -27 -13 -38 9 -54 25 -52 49 1 12 -1 28 -4 36 -3 8 -8 32 -10 53 -4 32 -2
37 15 37 11 0 27 -7 35 -16z m-192 -234 c3 -5 1 -10 -4 -10 -6 0 -11 5 -11 10
0 6 2 10 4 10 3 0 8 -4 11 -10z m266 -20 c18 -10 26 -40 13 -52 -3 -3 -23 1
-45 10 -41 16 -51 37 -21 45 28 8 33 7 53 -3z m87 -449 c9 -5 -3 -15 -40 -31
-29 -12 -56 -28 -60 -34 -6 -8 -12 -8 -26 0 -16 11 -18 9 -14 -17 4 -30 -3
-35 -28 -19 -9 6 -17 5 -22 -3 -4 -6 -9 -9 -12 -6 -14 13 32 53 97 84 78 37
85 39 105 26z m-328 -102 c0 -5 -7 -9 -15 -9 -15 0 -20 12 -9 23 8 8 24 -1 24
-14z"/>
</g>
</svg>
